<?xml version="1.0" encoding="utf-8" standalone="no"?>
<!DOCTYPE svg PUBLIC "-//W3C//DTD SVG 1.1//EN"
  "http://www.w3.org/Graphics/SVG/1.1/DTD/svg11.dtd">
<svg xmlns:xlink="http://www.w3.org/1999/xlink" width="720pt" height="360pt" viewBox="0 0 720 360" xmlns="http://www.w3.org/2000/svg" version="1.1">
 <metadata>
  <rdf:RDF xmlns:dc="http://purl.org/dc/elements/1.1/" xmlns:cc="http://creativecommons.org/ns#" xmlns:rdf="http://www.w3.org/1999/02/22-rdf-syntax-ns#">
   <cc:Work>
    <dc:type rdf:resource="http://purl.org/dc/dcmitype/StillImage"/>
    <dc:date>2024-02-04T02:07:43.984327</dc:date>
    <dc:format>image/svg+xml</dc:format>
    <dc:creator>
     <cc:Agent>
      <dc:title>Matplotlib v3.7.1, https://matplotlib.org/</dc:title>
     </cc:Agent>
    </dc:creator>
   </cc:Work>
  </rdf:RDF>
 </metadata>
 <defs>
  <style type="text/css">*{stroke-linejoin: round; stroke-linecap: butt}</style>
 </defs>
 <g id="figure_1">
  <g id="patch_1">
   <path d="M 0 360 
L 720 360 
L 720 0 
L 0 0 
z
" style="fill: #ffffff"/>
  </g>
  <g id="axes_1">
   <g id="patch_2">
    <path d="M 90 320.4 
L 648 320.4 
L 648 43.2 
L 90 43.2 
z
" style="fill: #eaeaf2"/>
   </g>
   <g id="matplotlib.axis_1">
    <g id="xtick_1">
     <g id="line2d_1">
      <path d="M 115.363636 320.4 
L 115.363636 43.2 
" clip-path="url(#p55961f0459)" style="fill: none; stroke-dasharray: 1.85,0.8; stroke-dashoffset: 0; stroke: #800080; stroke-width: 0.5"/>
     </g>
     <g id="line2d_2"/>
     <g id="text_1">
      <!-- 4 -->
      <g style="fill: #262626" transform="translate(112.583168 331.057813) scale(0.1 -0.1)">
       <defs>
        <path id="ArialMT-34" d="M 2069 0 
L 2069 1097 
L 81 1097 
L 81 1613 
L 2172 4581 
L 2631 4581 
L 2631 1613 
L 3250 1613 
L 3250 1097 
L 2631 1097 
L 2631 0 
L 2069 0 
z
M 2069 1613 
L 2069 3678 
L 634 1613 
L 2069 1613 
z
" transform="scale(0.015625)"/>
       </defs>
       <use xlink:href="#ArialMT-34"/>
      </g>
     </g>
    </g>
    <g id="xtick_2">
     <g id="line2d_3">
      <path d="M 199.909091 320.4 
L 199.909091 43.2 
" clip-path="url(#p55961f0459)" style="fill: none; stroke-dasharray: 1.85,0.8; stroke-dashoffset: 0; stroke: #800080; stroke-width: 0.5"/>
     </g>
     <g id="line2d_4"/>
     <g id="text_2">
      <!-- 5 -->
      <g style="fill: #262626" transform="translate(197.128622 331.057813) scale(0.1 -0.1)">
       <defs>
        <path id="ArialMT-35" d="M 266 1200 
L 856 1250 
Q 922 819 1161 601 
Q 1400 384 1738 384 
Q 2144 384 2425 690 
Q 2706 997 2706 1503 
Q 2706 1984 2436 2262 
Q 2166 2541 1728 2541 
Q 1456 2541 1237 2417 
Q 1019 2294 894 2097 
L 366 2166 
L 809 4519 
L 3088 4519 
L 3088 3981 
L 1259 3981 
L 1013 2750 
Q 1425 3038 1878 3038 
Q 2478 3038 2890 2622 
Q 3303 2206 3303 1553 
Q 3303 931 2941 478 
Q 2500 -78 1738 -78 
Q 1113 -78 717 272 
Q 322 622 266 1200 
z
" transform="scale(0.015625)"/>
       </defs>
       <use xlink:href="#ArialMT-35"/>
      </g>
     </g>
    </g>
    <g id="xtick_3">
     <g id="line2d_5">
      <path d="M 284.454545 320.4 
L 284.454545 43.2 
" clip-path="url(#p55961f0459)" style="fill: none; stroke-dasharray: 1.85,0.8; stroke-dashoffset: 0; stroke: #800080; stroke-width: 0.5"/>
     </g>
     <g id="line2d_6"/>
     <g id="text_3">
      <!-- 6 -->
      <g style="fill: #262626" transform="translate(281.674077 331.057813) scale(0.1 -0.1)">
       <defs>
        <path id="ArialMT-36" d="M 3184 3459 
L 2625 3416 
Q 2550 3747 2413 3897 
Q 2184 4138 1850 4138 
Q 1581 4138 1378 3988 
Q 1113 3794 959 3422 
Q 806 3050 800 2363 
Q 1003 2672 1297 2822 
Q 1591 2972 1913 2972 
Q 2475 2972 2870 2558 
Q 3266 2144 3266 1488 
Q 3266 1056 3080 686 
Q 2894 316 2569 119 
Q 2244 -78 1831 -78 
Q 1128 -78 684 439 
Q 241 956 241 2144 
Q 241 3472 731 4075 
Q 1159 4600 1884 4600 
Q 2425 4600 2770 4297 
Q 3116 3994 3184 3459 
z
M 888 1484 
Q 888 1194 1011 928 
Q 1134 663 1356 523 
Q 1578 384 1822 384 
Q 2178 384 2434 671 
Q 2691 959 2691 1453 
Q 2691 1928 2437 2201 
Q 2184 2475 1800 2475 
Q 1419 2475 1153 2201 
Q 888 1928 888 1484 
z
" transform="scale(0.015625)"/>
       </defs>
       <use xlink:href="#ArialMT-36"/>
      </g>
     </g>
    </g>
    <g id="xtick_4">
     <g id="line2d_7">
      <path d="M 369 320.4 
L 369 43.2 
" clip-path="url(#p55961f0459)" style="fill: none; stroke-dasharray: 1.85,0.8; stroke-dashoffset: 0; stroke: #800080; stroke-width: 0.5"/>
     </g>
     <g id="line2d_8"/>
     <g id="text_4">
      <!-- 7 -->
      <g style="fill: #262626" transform="translate(366.219531 331.057813) scale(0.1 -0.1)">
       <defs>
        <path id="ArialMT-37" d="M 303 3981 
L 303 4522 
L 3269 4522 
L 3269 4084 
Q 2831 3619 2401 2847 
Q 1972 2075 1738 1259 
Q 1569 684 1522 0 
L 944 0 
Q 953 541 1156 1306 
Q 1359 2072 1739 2783 
Q 2119 3494 2547 3981 
L 303 3981 
z
" transform="scale(0.015625)"/>
       </defs>
       <use xlink:href="#ArialMT-37"/>
      </g>
     </g>
    </g>
    <g id="xtick_5">
     <g id="line2d_9">
      <path d="M 453.545455 320.4 
L 453.545455 43.2 
" clip-path="url(#p55961f0459)" style="fill: none; stroke-dasharray: 1.85,0.8; stroke-dashoffset: 0; stroke: #800080; stroke-width: 0.5"/>
     </g>
     <g id="line2d_10"/>
     <g id="text_5">
      <!-- 8 -->
      <g style="fill: #262626" transform="translate(450.764986 331.057813) scale(0.1 -0.1)">
       <defs>
        <path id="ArialMT-38" d="M 1131 2484 
Q 781 2613 612 2850 
Q 444 3088 444 3419 
Q 444 3919 803 4259 
Q 1163 4600 1759 4600 
Q 2359 4600 2725 4251 
Q 3091 3903 3091 3403 
Q 3091 3084 2923 2848 
Q 2756 2613 2416 2484 
Q 2838 2347 3058 2040 
Q 3278 1734 3278 1309 
Q 3278 722 2862 322 
Q 2447 -78 1769 -78 
Q 1091 -78 675 323 
Q 259 725 259 1325 
Q 259 1772 486 2073 
Q 713 2375 1131 2484 
z
M 1019 3438 
Q 1019 3113 1228 2906 
Q 1438 2700 1772 2700 
Q 2097 2700 2305 2904 
Q 2513 3109 2513 3406 
Q 2513 3716 2298 3927 
Q 2084 4138 1766 4138 
Q 1444 4138 1231 3931 
Q 1019 3725 1019 3438 
z
M 838 1322 
Q 838 1081 952 856 
Q 1066 631 1291 507 
Q 1516 384 1775 384 
Q 2178 384 2440 643 
Q 2703 903 2703 1303 
Q 2703 1709 2433 1975 
Q 2163 2241 1756 2241 
Q 1359 2241 1098 1978 
Q 838 1716 838 1322 
z
" transform="scale(0.015625)"/>
       </defs>
       <use xlink:href="#ArialMT-38"/>
      </g>
     </g>
    </g>
    <g id="xtick_6">
     <g id="line2d_11">
      <path d="M 538.090909 320.4 
L 538.090909 43.2 
" clip-path="url(#p55961f0459)" style="fill: none; stroke-dasharray: 1.85,0.8; stroke-dashoffset: 0; stroke: #800080; stroke-width: 0.5"/>
     </g>
     <g id="line2d_12"/>
     <g id="text_6">
      <!-- 9 -->
      <g style="fill: #262626" transform="translate(535.31044 331.057813) scale(0.1 -0.1)">
       <defs>
        <path id="ArialMT-39" d="M 350 1059 
L 891 1109 
Q 959 728 1153 556 
Q 1347 384 1650 384 
Q 1909 384 2104 503 
Q 2300 622 2425 820 
Q 2550 1019 2634 1356 
Q 2719 1694 2719 2044 
Q 2719 2081 2716 2156 
Q 2547 1888 2255 1720 
Q 1963 1553 1622 1553 
Q 1053 1553 659 1965 
Q 266 2378 266 3053 
Q 266 3750 677 4175 
Q 1088 4600 1706 4600 
Q 2153 4600 2523 4359 
Q 2894 4119 3086 3673 
Q 3278 3228 3278 2384 
Q 3278 1506 3087 986 
Q 2897 466 2520 194 
Q 2144 -78 1638 -78 
Q 1100 -78 759 220 
Q 419 519 350 1059 
z
M 2653 3081 
Q 2653 3566 2395 3850 
Q 2138 4134 1775 4134 
Q 1400 4134 1122 3828 
Q 844 3522 844 3034 
Q 844 2597 1108 2323 
Q 1372 2050 1759 2050 
Q 2150 2050 2401 2323 
Q 2653 2597 2653 3081 
z
" transform="scale(0.015625)"/>
       </defs>
       <use xlink:href="#ArialMT-39"/>
      </g>
     </g>
    </g>
    <g id="xtick_7">
     <g id="line2d_13">
      <path d="M 622.636364 320.4 
L 622.636364 43.2 
" clip-path="url(#p55961f0459)" style="fill: none; stroke-dasharray: 1.85,0.8; stroke-dashoffset: 0; stroke: #800080; stroke-width: 0.5"/>
     </g>
     <g id="line2d_14"/>
     <g id="text_7">
      <!-- 10 -->
      <g style="fill: #262626" transform="translate(617.075426 331.057813) scale(0.1 -0.1)">
       <defs>
        <path id="ArialMT-31" d="M 2384 0 
L 1822 0 
L 1822 3584 
Q 1619 3391 1289 3197 
Q 959 3003 697 2906 
L 697 3450 
Q 1169 3672 1522 3987 
Q 1875 4303 2022 4600 
L 2384 4600 
L 2384 0 
z
" transform="scale(0.015625)"/>
        <path id="ArialMT-30" d="M 266 2259 
Q 266 3072 433 3567 
Q 600 4063 929 4331 
Q 1259 4600 1759 4600 
Q 2128 4600 2406 4451 
Q 2684 4303 2865 4023 
Q 3047 3744 3150 3342 
Q 3253 2941 3253 2259 
Q 3253 1453 3087 958 
Q 2922 463 2592 192 
Q 2263 -78 1759 -78 
Q 1097 -78 719 397 
Q 266 969 266 2259 
z
M 844 2259 
Q 844 1131 1108 757 
Q 1372 384 1759 384 
Q 2147 384 2411 759 
Q 2675 1134 2675 2259 
Q 2675 3391 2411 3762 
Q 2147 4134 1753 4134 
Q 1366 4134 1134 3806 
Q 844 3388 844 2259 
z
" transform="scale(0.015625)"/>
       </defs>
       <use xlink:href="#ArialMT-31"/>
       <use xlink:href="#ArialMT-30" x="55.615234"/>
      </g>
     </g>
    </g>
    <g id="text_8">
     <!-- $x_1$ -->
     <g style="fill: #262626" transform="translate(362.58 345.634687) scale(0.12 -0.12)">
      <defs>
       <path id="DejaVuSans-Oblique-78" d="M 3841 3500 
L 2234 1784 
L 3219 0 
L 2559 0 
L 1819 1388 
L 531 0 
L -166 0 
L 1556 1844 
L 641 3500 
L 1300 3500 
L 1972 2234 
L 3144 3500 
L 3841 3500 
z
" transform="scale(0.015625)"/>
       <path id="DejaVuSans-31" d="M 794 531 
L 1825 531 
L 1825 4091 
L 703 3866 
L 703 4441 
L 1819 4666 
L 2450 4666 
L 2450 531 
L 3481 531 
L 3481 0 
L 794 0 
L 794 531 
z
" transform="scale(0.015625)"/>
      </defs>
      <use xlink:href="#DejaVuSans-Oblique-78" transform="translate(0 0.3125)"/>
      <use xlink:href="#DejaVuSans-31" transform="translate(59.179688 -16.09375) scale(0.7)"/>
     </g>
    </g>
   </g>
   <g id="matplotlib.axis_2">
    <g id="ytick_1">
     <g id="line2d_15">
      <path d="M 90 280.487117 
L 648 280.487117 
" clip-path="url(#p55961f0459)" style="fill: none; stroke-dasharray: 1.85,0.8; stroke-dashoffset: 0; stroke: #800080; stroke-width: 0.5"/>
     </g>
     <g id="line2d_16"/>
     <g id="text_9">
      <!-- 2 -->
      <g style="fill: #262626" transform="translate(80.939063 284.066023) scale(0.1 -0.1)">
       <defs>
        <path id="ArialMT-32" d="M 3222 541 
L 3222 0 
L 194 0 
Q 188 203 259 391 
Q 375 700 629 1000 
Q 884 1300 1366 1694 
Q 2113 2306 2375 2664 
Q 2638 3022 2638 3341 
Q 2638 3675 2398 3904 
Q 2159 4134 1775 4134 
Q 1369 4134 1125 3890 
Q 881 3647 878 3216 
L 300 3275 
Q 359 3922 746 4261 
Q 1134 4600 1788 4600 
Q 2447 4600 2831 4234 
Q 3216 3869 3216 3328 
Q 3216 3053 3103 2787 
Q 2991 2522 2730 2228 
Q 2469 1934 1863 1422 
Q 1356 997 1212 845 
Q 1069 694 975 541 
L 3222 541 
z
" transform="scale(0.015625)"/>
       </defs>
       <use xlink:href="#ArialMT-32"/>
      </g>
     </g>
    </g>
    <g id="ytick_2">
     <g id="line2d_17">
      <path d="M 90 237.71411 
L 648 237.71411 
" clip-path="url(#p55961f0459)" style="fill: none; stroke-dasharray: 1.85,0.8; stroke-dashoffset: 0; stroke: #800080; stroke-width: 0.5"/>
     </g>
     <g id="line2d_18"/>
     <g id="text_10">
      <!-- 4 -->
      <g style="fill: #262626" transform="translate(80.939063 241.293017) scale(0.1 -0.1)">
       <use xlink:href="#ArialMT-34"/>
      </g>
     </g>
    </g>
    <g id="ytick_3">
     <g id="line2d_19">
      <path d="M 90 194.941104 
L 648 194.941104 
" clip-path="url(#p55961f0459)" style="fill: none; stroke-dasharray: 1.85,0.8; stroke-dashoffset: 0; stroke: #800080; stroke-width: 0.5"/>
     </g>
     <g id="line2d_20"/>
     <g id="text_11">
      <!-- 6 -->
      <g style="fill: #262626" transform="translate(80.939063 198.520011) scale(0.1 -0.1)">
       <use xlink:href="#ArialMT-36"/>
      </g>
     </g>
    </g>
    <g id="ytick_4">
     <g id="line2d_21">
      <path d="M 90 152.168098 
L 648 152.168098 
" clip-path="url(#p55961f0459)" style="fill: none; stroke-dasharray: 1.85,0.8; stroke-dashoffset: 0; stroke: #800080; stroke-width: 0.5"/>
     </g>
     <g id="line2d_22"/>
     <g id="text_12">
      <!-- 8 -->
      <g style="fill: #262626" transform="translate(80.939063 155.747004) scale(0.1 -0.1)">
       <use xlink:href="#ArialMT-38"/>
      </g>
     </g>
    </g>
    <g id="ytick_5">
     <g id="line2d_23">
      <path d="M 90 109.395092 
L 648 109.395092 
" clip-path="url(#p55961f0459)" style="fill: none; stroke-dasharray: 1.85,0.8; stroke-dashoffset: 0; stroke: #800080; stroke-width: 0.5"/>
     </g>
     <g id="line2d_24"/>
     <g id="text_13">
      <!-- 10 -->
      <g style="fill: #262626" transform="translate(75.378125 112.973998) scale(0.1 -0.1)">
       <use xlink:href="#ArialMT-31"/>
       <use xlink:href="#ArialMT-30" x="55.615234"/>
      </g>
     </g>
    </g>
    <g id="ytick_6">
     <g id="line2d_25">
      <path d="M 90 66.622086 
L 648 66.622086 
" clip-path="url(#p55961f0459)" style="fill: none; stroke-dasharray: 1.85,0.8; stroke-dashoffset: 0; stroke: #800080; stroke-width: 0.5"/>
     </g>
     <g id="line2d_26"/>
     <g id="text_14">
      <!-- 12 -->
      <g style="fill: #262626" transform="translate(75.378125 70.200992) scale(0.1 -0.1)">
       <use xlink:href="#ArialMT-31"/>
       <use xlink:href="#ArialMT-32" x="55.615234"/>
      </g>
     </g>
    </g>
    <g id="text_15">
     <!-- $x_2$ -->
     <g style="fill: #262626" transform="translate(68.993125 188.22) rotate(-90) scale(0.12 -0.12)">
      <defs>
       <path id="DejaVuSans-32" d="M 1228 531 
L 3431 531 
L 3431 0 
L 469 0 
L 469 531 
Q 828 903 1448 1529 
Q 2069 2156 2228 2338 
Q 2531 2678 2651 2914 
Q 2772 3150 2772 3378 
Q 2772 3750 2511 3984 
Q 2250 4219 1831 4219 
Q 1534 4219 1204 4116 
Q 875 4013 500 3803 
L 500 4441 
Q 881 4594 1212 4672 
Q 1544 4750 1819 4750 
Q 2544 4750 2975 4387 
Q 3406 4025 3406 3419 
Q 3406 3131 3298 2873 
Q 3191 2616 2906 2266 
Q 2828 2175 2409 1742 
Q 1991 1309 1228 531 
z
" transform="scale(0.015625)"/>
      </defs>
      <use xlink:href="#DejaVuSans-Oblique-78" transform="translate(0 0.3125)"/>
      <use xlink:href="#DejaVuSans-32" transform="translate(59.179688 -16.09375) scale(0.7)"/>
     </g>
    </g>
   </g>
   <g id="PolyCollection_1">
    <defs>
     <path id="m5ccb7199b0" d="M 115.363636 -304.2 
L 115.363636 -304.2 
L 120.487603 -301.654545 
L 125.61157 -299.109091 
L 130.735537 -296.563636 
L 135.859504 -294.018182 
L 140.983471 -291.472727 
L 146.107438 -288.927273 
L 151.231405 -286.381818 
L 156.355372 -283.836364 
L 161.479339 -281.290909 
L 166.603306 -278.745455 
L 171.727273 -276.2 
L 176.85124 -273.654545 
L 181.975207 -271.109091 
L 187.099174 -268.563636 
L 192.22314 -266.018182 
L 197.347107 -263.472727 
L 202.471074 -260.927273 
L 207.595041 -258.381818 
L 212.719008 -255.836364 
L 217.842975 -254.017561 
L 222.966942 -252.672188 
L 228.090909 -251.326815 
L 233.214876 -249.981443 
L 238.338843 -248.63607 
L 243.46281 -247.290697 
L 248.586777 -245.945325 
L 253.710744 -244.599952 
L 258.834711 -243.254579 
L 263.958678 -241.909207 
L 269.082645 -240.563834 
L 274.206612 -239.218461 
L 279.330579 -237.873089 
L 284.454545 -236.527716 
L 289.578512 -235.182343 
L 294.702479 -233.836971 
L 299.826446 -232.491598 
L 304.950413 -231.146225 
L 310.07438 -229.800853 
L 315.198347 -228.45548 
L 320.322314 -227.110108 
L 325.446281 -225.764735 
L 330.570248 -224.419362 
L 335.694215 -223.07399 
L 340.818182 -221.728617 
L 345.942149 -220.383244 
L 351.066116 -219.037872 
L 356.190083 -217.692499 
L 361.31405 -216.347126 
L 366.438017 -215.001754 
L 371.561983 -213.656381 
L 376.68595 -212.311008 
L 381.809917 -210.965636 
L 386.933884 -209.620263 
L 392.057851 -208.27489 
L 397.181818 -206.929518 
L 402.305785 -205.584145 
L 407.429752 -204.238772 
L 412.553719 -202.8934 
L 417.677686 -201.548027 
L 422.801653 -200.202654 
L 427.92562 -198.857282 
L 433.049587 -197.511909 
L 438.173554 -196.166537 
L 443.297521 -194.821164 
L 448.421488 -193.475791 
L 453.545455 -192.130419 
L 458.669421 -190.785046 
L 463.793388 -189.439673 
L 468.917355 -188.094301 
L 474.041322 -186.748928 
L 479.165289 -185.403555 
L 484.289256 -184.058183 
L 489.413223 -182.71281 
L 494.53719 -181.367437 
L 499.661157 -180.022065 
L 504.785124 -178.676692 
L 509.909091 -177.331319 
L 515.033058 -175.985947 
L 520.157025 -174.640574 
L 525.280992 -173.295201 
L 530.404959 -171.949829 
L 535.528926 -170.604456 
L 540.652893 -169.259083 
L 545.77686 -167.913711 
L 550.900826 -166.568338 
L 556.024793 -165.222966 
L 561.14876 -163.877593 
L 566.272727 -162.53222 
L 571.396694 -161.186848 
L 576.520661 -159.841475 
L 581.644628 -158.496102 
L 586.768595 -157.15073 
L 591.892562 -155.805357 
L 597.016529 -154.459984 
L 602.140496 -153.114612 
L 607.264463 -151.769239 
L 612.38843 -150.423866 
L 617.512397 -149.078494 
L 622.636364 -147.733121 
L 622.636364 -147.733121 
L 622.636364 -147.733121 
L 617.512397 -149.078494 
L 612.38843 -150.423866 
L 607.264463 -151.769239 
L 602.140496 -153.114612 
L 597.016529 -154.459984 
L 591.892562 -155.805357 
L 586.768595 -157.15073 
L 581.644628 -158.496102 
L 576.520661 -159.841475 
L 571.396694 -161.186848 
L 566.272727 -162.53222 
L 561.14876 -163.877593 
L 556.024793 -165.090703 
L 550.900826 -165.98131 
L 545.77686 -166.871918 
L 540.652893 -167.762525 
L 535.528926 -168.653132 
L 530.404959 -169.54374 
L 525.280992 -170.434347 
L 520.157025 -171.324954 
L 515.033058 -172.215562 
L 509.909091 -173.106169 
L 504.785124 -173.996776 
L 499.661157 -174.887383 
L 494.53719 -175.777991 
L 489.413223 -176.668598 
L 484.289256 -177.559205 
L 479.165289 -178.449813 
L 474.041322 -179.34042 
L 468.917355 -180.231027 
L 463.793388 -181.121635 
L 458.669421 -182.012242 
L 453.545455 -182.902849 
L 448.421488 -183.793456 
L 443.297521 -184.684064 
L 438.173554 -185.574671 
L 433.049587 -186.465278 
L 427.92562 -187.355886 
L 422.801653 -188.246493 
L 417.677686 -189.1371 
L 412.553719 -190.027708 
L 407.429752 -190.918315 
L 402.305785 -191.808922 
L 397.181818 -192.69953 
L 392.057851 -193.590137 
L 386.933884 -194.480744 
L 381.809917 -195.371351 
L 376.68595 -196.261959 
L 371.561983 -197.152566 
L 366.438017 -198.043173 
L 361.31405 -198.933781 
L 356.190083 -199.824388 
L 351.066116 -200.714995 
L 345.942149 -201.605603 
L 340.818182 -202.49621 
L 335.694215 -203.386817 
L 330.570248 -204.277424 
L 325.446281 -205.168032 
L 320.322314 -206.058639 
L 315.198347 -206.949246 
L 310.07438 -207.839854 
L 304.950413 -210.018182 
L 299.826446 -212.563636 
L 294.702479 -215.109091 
L 289.578512 -217.654545 
L 284.454545 -220.2 
L 279.330579 -222.745455 
L 274.206612 -225.290909 
L 269.082645 -227.836364 
L 263.958678 -230.381818 
L 258.834711 -232.927273 
L 253.710744 -235.472727 
L 248.586777 -238.018182 
L 243.46281 -240.563636 
L 238.338843 -243.109091 
L 233.214876 -245.654545 
L 228.090909 -248.2 
L 222.966942 -250.745455 
L 217.842975 -253.290909 
L 212.719008 -255.836364 
L 207.595041 -258.381818 
L 202.471074 -260.927273 
L 197.347107 -263.472727 
L 192.22314 -266.018182 
L 187.099174 -268.563636 
L 181.975207 -271.109091 
L 176.85124 -273.654545 
L 171.727273 -276.2 
L 166.603306 -278.745455 
L 161.479339 -281.290909 
L 156.355372 -283.836364 
L 151.231405 -286.381818 
L 146.107438 -288.927273 
L 140.983471 -291.472727 
L 135.859504 -294.018182 
L 130.735537 -296.563636 
L 125.61157 -299.109091 
L 120.487603 -301.654545 
L 115.363636 -304.2 
z
" style="stroke: #808080; stroke-opacity: 0.5"/>
    </defs>
    <g clip-path="url(#p55961f0459)">
     <use xlink:href="#m5ccb7199b0" x="0" y="360" style="fill: #808080; fill-opacity: 0.5; stroke: #808080; stroke-opacity: 0.5"/>
    </g>
   </g>
   <g id="line2d_27">
    <path d="M 115.363636 79.074986 
L 120.487603 80.420359 
L 125.61157 81.765732 
L 130.735537 83.111104 
L 135.859504 84.456477 
L 140.983471 85.80185 
L 146.107438 87.147222 
L 151.231405 88.492595 
L 156.355372 89.837968 
L 161.479339 91.18334 
L 166.603306 92.528713 
L 171.727273 93.874086 
L 176.85124 95.219458 
L 181.975207 96.564831 
L 187.099174 97.910204 
L 192.22314 99.255576 
L 197.347107 100.600949 
L 202.471074 101.946321 
L 207.595041 103.291694 
L 212.719008 104.637067 
L 217.842975 105.982439 
L 222.966942 107.327812 
L 228.090909 108.673185 
L 233.214876 110.018557 
L 238.338843 111.36393 
L 243.46281 112.709303 
L 248.586777 114.054675 
L 253.710744 115.400048 
L 258.834711 116.745421 
L 263.958678 118.090793 
L 269.082645 119.436166 
L 274.206612 120.781539 
L 279.330579 122.126911 
L 284.454545 123.472284 
L 289.578512 124.817657 
L 294.702479 126.163029 
L 299.826446 127.508402 
L 304.950413 128.853775 
L 310.07438 130.199147 
L 315.198347 131.54452 
L 320.322314 132.889892 
L 325.446281 134.235265 
L 330.570248 135.580638 
L 335.694215 136.92601 
L 340.818182 138.271383 
L 345.942149 139.616756 
L 351.066116 140.962128 
L 356.190083 142.307501 
L 361.31405 143.652874 
L 366.438017 144.998246 
L 371.561983 146.343619 
L 376.68595 147.688992 
L 381.809917 149.034364 
L 386.933884 150.379737 
L 392.057851 151.72511 
L 397.181818 153.070482 
L 402.305785 154.415855 
L 407.429752 155.761228 
L 412.553719 157.1066 
L 417.677686 158.451973 
L 422.801653 159.797346 
L 427.92562 161.142718 
L 433.049587 162.488091 
L 438.173554 163.833463 
L 443.297521 165.178836 
L 448.421488 166.524209 
L 453.545455 167.869581 
L 458.669421 169.214954 
L 463.793388 170.560327 
L 468.917355 171.905699 
L 474.041322 173.251072 
L 479.165289 174.596445 
L 484.289256 175.941817 
L 489.413223 177.28719 
L 494.53719 178.632563 
L 499.661157 179.977935 
L 504.785124 181.323308 
L 509.909091 182.668681 
L 515.033058 184.014053 
L 520.157025 185.359426 
L 525.280992 186.704799 
L 530.404959 188.050171 
L 535.528926 189.395544 
L 540.652893 190.740917 
L 545.77686 192.086289 
L 550.900826 193.431662 
L 556.024793 194.777034 
L 561.14876 196.122407 
L 566.272727 197.46778 
L 571.396694 198.813152 
L 576.520661 200.158525 
L 581.644628 201.503898 
L 586.768595 202.84927 
L 591.892562 204.194643 
L 597.016529 205.540016 
L 602.140496 206.885388 
L 607.264463 208.230761 
L 612.38843 209.576134 
L 617.512397 210.921506 
L 622.636364 212.266879 
" clip-path="url(#p55961f0459)" style="fill: none; stroke-dasharray: 5.55,2.4; stroke-dashoffset: 0; stroke: #cd5c5c; stroke-width: 1.5"/>
   </g>
   <g id="line2d_28">
    <path d="M 115.363636 118.317069 
L 120.487603 119.207676 
L 125.61157 120.098283 
L 130.735537 120.988891 
L 135.859504 121.879498 
L 140.983471 122.770105 
L 146.107438 123.660713 
L 151.231405 124.55132 
L 156.355372 125.441927 
L 161.479339 126.332534 
L 166.603306 127.223142 
L 171.727273 128.113749 
L 176.85124 129.004356 
L 181.975207 129.894964 
L 187.099174 130.785571 
L 192.22314 131.676178 
L 197.347107 132.566786 
L 202.471074 133.457393 
L 207.595041 134.348 
L 212.719008 135.238608 
L 217.842975 136.129215 
L 222.966942 137.019822 
L 228.090909 137.910429 
L 233.214876 138.801037 
L 238.338843 139.691644 
L 243.46281 140.582251 
L 248.586777 141.472859 
L 253.710744 142.363466 
L 258.834711 143.254073 
L 263.958678 144.144681 
L 269.082645 145.035288 
L 274.206612 145.925895 
L 279.330579 146.816502 
L 284.454545 147.70711 
L 289.578512 148.597717 
L 294.702479 149.488324 
L 299.826446 150.378932 
L 304.950413 151.269539 
L 310.07438 152.160146 
L 315.198347 153.050754 
L 320.322314 153.941361 
L 325.446281 154.831968 
L 330.570248 155.722576 
L 335.694215 156.613183 
L 340.818182 157.50379 
L 345.942149 158.394397 
L 351.066116 159.285005 
L 356.190083 160.175612 
L 361.31405 161.066219 
L 366.438017 161.956827 
L 371.561983 162.847434 
L 376.68595 163.738041 
L 381.809917 164.628649 
L 386.933884 165.519256 
L 392.057851 166.409863 
L 397.181818 167.30047 
L 402.305785 168.191078 
L 407.429752 169.081685 
L 412.553719 169.972292 
L 417.677686 170.8629 
L 422.801653 171.753507 
L 427.92562 172.644114 
L 433.049587 173.534722 
L 438.173554 174.425329 
L 443.297521 175.315936 
L 448.421488 176.206544 
L 453.545455 177.097151 
L 458.669421 177.987758 
L 463.793388 178.878365 
L 468.917355 179.768973 
L 474.041322 180.65958 
L 479.165289 181.550187 
L 484.289256 182.440795 
L 489.413223 183.331402 
L 494.53719 184.222009 
L 499.661157 185.112617 
L 504.785124 186.003224 
L 509.909091 186.893831 
L 515.033058 187.784438 
L 520.157025 188.675046 
L 525.280992 189.565653 
L 530.404959 190.45626 
L 535.528926 191.346868 
L 540.652893 192.237475 
L 545.77686 193.128082 
L 550.900826 194.01869 
L 556.024793 194.909297 
L 561.14876 195.799904 
L 566.272727 196.690511 
L 571.396694 197.581119 
L 576.520661 198.471726 
L 581.644628 199.362333 
L 586.768595 200.252941 
L 591.892562 201.143548 
L 597.016529 202.034155 
L 602.140496 202.924763 
L 607.264463 203.81537 
L 612.38843 204.705977 
L 617.512397 205.596585 
L 622.636364 206.487192 
" clip-path="url(#p55961f0459)" style="fill: none; stroke-dasharray: 1.5,2.475; stroke-dashoffset: 0; stroke: #008080; stroke-width: 1.5"/>
   </g>
   <g id="line2d_29">
    <path d="M 115.363636 55.8 
L 120.487603 58.345455 
L 125.61157 60.890909 
L 130.735537 63.436364 
L 135.859504 65.981818 
L 140.983471 68.527273 
L 146.107438 71.072727 
L 151.231405 73.618182 
L 156.355372 76.163636 
L 161.479339 78.709091 
L 166.603306 81.254545 
L 171.727273 83.8 
L 176.85124 86.345455 
L 181.975207 88.890909 
L 187.099174 91.436364 
L 192.22314 93.981818 
L 197.347107 96.527273 
L 202.471074 99.072727 
L 207.595041 101.618182 
L 212.719008 104.163636 
L 217.842975 106.709091 
L 222.966942 109.254545 
L 228.090909 111.8 
L 233.214876 114.345455 
L 238.338843 116.890909 
L 243.46281 119.436364 
L 248.586777 121.981818 
L 253.710744 124.527273 
L 258.834711 127.072727 
L 263.958678 129.618182 
L 269.082645 132.163636 
L 274.206612 134.709091 
L 279.330579 137.254545 
L 284.454545 139.8 
L 289.578512 142.345455 
L 294.702479 144.890909 
L 299.826446 147.436364 
L 304.950413 149.981818 
L 310.07438 152.527273 
L 315.198347 155.072727 
L 320.322314 157.618182 
L 325.446281 160.163636 
L 330.570248 162.709091 
L 335.694215 165.254545 
L 340.818182 167.8 
L 345.942149 170.345455 
L 351.066116 172.890909 
L 356.190083 175.436364 
L 361.31405 177.981818 
L 366.438017 180.527273 
L 371.561983 183.072727 
L 376.68595 185.618182 
L 381.809917 188.163636 
L 386.933884 190.709091 
L 392.057851 193.254545 
L 397.181818 195.8 
L 402.305785 198.345455 
L 407.429752 200.890909 
L 412.553719 203.436364 
L 417.677686 205.981818 
L 422.801653 208.527273 
L 427.92562 211.072727 
L 433.049587 213.618182 
L 438.173554 216.163636 
L 443.297521 218.709091 
L 448.421488 221.254545 
L 453.545455 223.8 
L 458.669421 226.345455 
L 463.793388 228.890909 
L 468.917355 231.436364 
L 474.041322 233.981818 
L 479.165289 236.527273 
L 484.289256 239.072727 
L 489.413223 241.618182 
L 494.53719 244.163636 
L 499.661157 246.709091 
L 504.785124 249.254545 
L 509.909091 251.8 
L 515.033058 254.345455 
L 520.157025 256.890909 
L 525.280992 259.436364 
L 530.404959 261.981818 
L 535.528926 264.527273 
L 540.652893 267.072727 
L 545.77686 269.618182 
L 550.900826 272.163636 
L 556.024793 274.709091 
L 561.14876 277.254545 
L 566.272727 279.8 
L 571.396694 282.345455 
L 576.520661 284.890909 
L 581.644628 287.436364 
L 586.768595 289.981818 
L 591.892562 292.527273 
L 597.016529 295.072727 
L 602.140496 297.618182 
L 607.264463 300.163636 
L 612.38843 302.709091 
L 617.512397 305.254545 
L 622.636364 307.8 
" clip-path="url(#p55961f0459)" style="fill: none; stroke-dasharray: 9.6,2.4,1.5,2.4; stroke-dashoffset: 0; stroke: #ff00ff; stroke-width: 1.5"/>
   </g>
   <g id="patch_3">
    <path d="M 90 320.4 
L 90 43.2 
" style="fill: none"/>
   </g>
   <g id="patch_4">
    <path d="M 648 320.4 
L 648 43.2 
" style="fill: none"/>
   </g>
   <g id="patch_5">
    <path d="M 90 320.4 
L 648 320.4 
" style="fill: none"/>
   </g>
   <g id="patch_6">
    <path d="M 90 43.2 
L 648 43.2 
" style="fill: none"/>
   </g>
   <g id="text_16">
    <!-- $8.2x_1 + 7.9x_2 = 123$ -->
    <g style="fill: #cd5c5c" transform="translate(284.935365 110.951686) rotate(-346) scale(0.1 -0.1)">
     <defs>
      <path id="DejaVuSans-38" d="M 2034 2216 
Q 1584 2216 1326 1975 
Q 1069 1734 1069 1313 
Q 1069 891 1326 650 
Q 1584 409 2034 409 
Q 2484 409 2743 651 
Q 3003 894 3003 1313 
Q 3003 1734 2745 1975 
Q 2488 2216 2034 2216 
z
M 1403 2484 
Q 997 2584 770 2862 
Q 544 3141 544 3541 
Q 544 4100 942 4425 
Q 1341 4750 2034 4750 
Q 2731 4750 3128 4425 
Q 3525 4100 3525 3541 
Q 3525 3141 3298 2862 
Q 3072 2584 2669 2484 
Q 3125 2378 3379 2068 
Q 3634 1759 3634 1313 
Q 3634 634 3220 271 
Q 2806 -91 2034 -91 
Q 1263 -91 848 271 
Q 434 634 434 1313 
Q 434 1759 690 2068 
Q 947 2378 1403 2484 
z
M 1172 3481 
Q 1172 3119 1398 2916 
Q 1625 2713 2034 2713 
Q 2441 2713 2670 2916 
Q 2900 3119 2900 3481 
Q 2900 3844 2670 4047 
Q 2441 4250 2034 4250 
Q 1625 4250 1398 4047 
Q 1172 3844 1172 3481 
z
" transform="scale(0.015625)"/>
      <path id="DejaVuSans-2e" d="M 684 794 
L 1344 794 
L 1344 0 
L 684 0 
L 684 794 
z
" transform="scale(0.015625)"/>
      <path id="DejaVuSans-2b" d="M 2944 4013 
L 2944 2272 
L 4684 2272 
L 4684 1741 
L 2944 1741 
L 2944 0 
L 2419 0 
L 2419 1741 
L 678 1741 
L 678 2272 
L 2419 2272 
L 2419 4013 
L 2944 4013 
z
" transform="scale(0.015625)"/>
      <path id="DejaVuSans-37" d="M 525 4666 
L 3525 4666 
L 3525 4397 
L 1831 0 
L 1172 0 
L 2766 4134 
L 525 4134 
L 525 4666 
z
" transform="scale(0.015625)"/>
      <path id="DejaVuSans-39" d="M 703 97 
L 703 672 
Q 941 559 1184 500 
Q 1428 441 1663 441 
Q 2288 441 2617 861 
Q 2947 1281 2994 2138 
Q 2813 1869 2534 1725 
Q 2256 1581 1919 1581 
Q 1219 1581 811 2004 
Q 403 2428 403 3163 
Q 403 3881 828 4315 
Q 1253 4750 1959 4750 
Q 2769 4750 3195 4129 
Q 3622 3509 3622 2328 
Q 3622 1225 3098 567 
Q 2575 -91 1691 -91 
Q 1453 -91 1209 -44 
Q 966 3 703 97 
z
M 1959 2075 
Q 2384 2075 2632 2365 
Q 2881 2656 2881 3163 
Q 2881 3666 2632 3958 
Q 2384 4250 1959 4250 
Q 1534 4250 1286 3958 
Q 1038 3666 1038 3163 
Q 1038 2656 1286 2365 
Q 1534 2075 1959 2075 
z
" transform="scale(0.015625)"/>
      <path id="DejaVuSans-3d" d="M 678 2906 
L 4684 2906 
L 4684 2381 
L 678 2381 
L 678 2906 
z
M 678 1631 
L 4684 1631 
L 4684 1100 
L 678 1100 
L 678 1631 
z
" transform="scale(0.015625)"/>
      <path id="DejaVuSans-33" d="M 2597 2516 
Q 3050 2419 3304 2112 
Q 3559 1806 3559 1356 
Q 3559 666 3084 287 
Q 2609 -91 1734 -91 
Q 1441 -91 1130 -33 
Q 819 25 488 141 
L 488 750 
Q 750 597 1062 519 
Q 1375 441 1716 441 
Q 2309 441 2620 675 
Q 2931 909 2931 1356 
Q 2931 1769 2642 2001 
Q 2353 2234 1838 2234 
L 1294 2234 
L 1294 2753 
L 1863 2753 
Q 2328 2753 2575 2939 
Q 2822 3125 2822 3475 
Q 2822 3834 2567 4026 
Q 2313 4219 1838 4219 
Q 1578 4219 1281 4162 
Q 984 4106 628 3988 
L 628 4550 
Q 988 4650 1302 4700 
Q 1616 4750 1894 4750 
Q 2613 4750 3031 4423 
Q 3450 4097 3450 3541 
Q 3450 3153 3228 2886 
Q 3006 2619 2597 2516 
z
" transform="scale(0.015625)"/>
     </defs>
     <use xlink:href="#DejaVuSans-38" transform="translate(0 0.78125)"/>
     <use xlink:href="#DejaVuSans-2e" transform="translate(63.623047 0.78125)"/>
     <use xlink:href="#DejaVuSans-32" transform="translate(89.910156 0.78125)"/>
     <use xlink:href="#DejaVuSans-Oblique-78" transform="translate(153.533203 0.78125)"/>
     <use xlink:href="#DejaVuSans-31" transform="translate(212.712891 -15.625) scale(0.7)"/>
     <use xlink:href="#DejaVuSans-2b" transform="translate(279.46582 0.78125)"/>
     <use xlink:href="#DejaVuSans-37" transform="translate(382.737305 0.78125)"/>
     <use xlink:href="#DejaVuSans-2e" transform="translate(446.360352 0.78125)"/>
     <use xlink:href="#DejaVuSans-39" transform="translate(478.147461 0.78125)"/>
     <use xlink:href="#DejaVuSans-Oblique-78" transform="translate(541.770508 0.78125)"/>
     <use xlink:href="#DejaVuSans-32" transform="translate(600.950195 -15.625) scale(0.7)"/>
     <use xlink:href="#DejaVuSans-3d" transform="translate(667.703125 0.78125)"/>
     <use xlink:href="#DejaVuSans-31" transform="translate(770.974609 0.78125)"/>
     <use xlink:href="#DejaVuSans-32" transform="translate(834.597656 0.78125)"/>
     <use xlink:href="#DejaVuSans-33" transform="translate(898.220703 0.78125)"/>
    </g>
   </g>
   <g id="text_17">
    <!-- $11.2x_1 + 16.3x_2 = 201$ -->
    <g style="fill: #008080" transform="translate(115.708762 110.112864) rotate(-350) scale(0.1 -0.1)">
     <defs>
      <path id="DejaVuSans-36" d="M 2113 2584 
Q 1688 2584 1439 2293 
Q 1191 2003 1191 1497 
Q 1191 994 1439 701 
Q 1688 409 2113 409 
Q 2538 409 2786 701 
Q 3034 994 3034 1497 
Q 3034 2003 2786 2293 
Q 2538 2584 2113 2584 
z
M 3366 4563 
L 3366 3988 
Q 3128 4100 2886 4159 
Q 2644 4219 2406 4219 
Q 1781 4219 1451 3797 
Q 1122 3375 1075 2522 
Q 1259 2794 1537 2939 
Q 1816 3084 2150 3084 
Q 2853 3084 3261 2657 
Q 3669 2231 3669 1497 
Q 3669 778 3244 343 
Q 2819 -91 2113 -91 
Q 1303 -91 875 529 
Q 447 1150 447 2328 
Q 447 3434 972 4092 
Q 1497 4750 2381 4750 
Q 2619 4750 2861 4703 
Q 3103 4656 3366 4563 
z
" transform="scale(0.015625)"/>
      <path id="DejaVuSans-30" d="M 2034 4250 
Q 1547 4250 1301 3770 
Q 1056 3291 1056 2328 
Q 1056 1369 1301 889 
Q 1547 409 2034 409 
Q 2525 409 2770 889 
Q 3016 1369 3016 2328 
Q 3016 3291 2770 3770 
Q 2525 4250 2034 4250 
z
M 2034 4750 
Q 2819 4750 3233 4129 
Q 3647 3509 3647 2328 
Q 3647 1150 3233 529 
Q 2819 -91 2034 -91 
Q 1250 -91 836 529 
Q 422 1150 422 2328 
Q 422 3509 836 4129 
Q 1250 4750 2034 4750 
z
" transform="scale(0.015625)"/>
     </defs>
     <use xlink:href="#DejaVuSans-31" transform="translate(0 0.78125)"/>
     <use xlink:href="#DejaVuSans-31" transform="translate(63.623047 0.78125)"/>
     <use xlink:href="#DejaVuSans-2e" transform="translate(127.246094 0.78125)"/>
     <use xlink:href="#DejaVuSans-32" transform="translate(153.533203 0.78125)"/>
     <use xlink:href="#DejaVuSans-Oblique-78" transform="translate(217.15625 0.78125)"/>
     <use xlink:href="#DejaVuSans-31" transform="translate(276.335938 -15.625) scale(0.7)"/>
     <use xlink:href="#DejaVuSans-2b" transform="translate(343.088867 0.78125)"/>
     <use xlink:href="#DejaVuSans-31" transform="translate(446.360352 0.78125)"/>
     <use xlink:href="#DejaVuSans-36" transform="translate(509.983398 0.78125)"/>
     <use xlink:href="#DejaVuSans-2e" transform="translate(573.606445 0.78125)"/>
     <use xlink:href="#DejaVuSans-33" transform="translate(605.393555 0.78125)"/>
     <use xlink:href="#DejaVuSans-Oblique-78" transform="translate(669.016602 0.78125)"/>
     <use xlink:href="#DejaVuSans-32" transform="translate(728.196289 -15.625) scale(0.7)"/>
     <use xlink:href="#DejaVuSans-3d" transform="translate(794.949219 0.78125)"/>
     <use xlink:href="#DejaVuSans-32" transform="translate(898.220703 0.78125)"/>
     <use xlink:href="#DejaVuSans-30" transform="translate(961.84375 0.78125)"/>
     <use xlink:href="#DejaVuSans-31" transform="translate(1025.466797 0.78125)"/>
    </g>
   </g>
   <g id="text_18">
    <!-- $-16.3x_1 - 8.3x_2 = 169$ -->
    <g style="fill: #ff00ff" transform="translate(454.416717 211.479819) rotate(-334) scale(0.1 -0.1)">
     <defs>
      <path id="DejaVuSans-2212" d="M 678 2272 
L 4684 2272 
L 4684 1741 
L 678 1741 
L 678 2272 
z
" transform="scale(0.015625)"/>
     </defs>
     <use xlink:href="#DejaVuSans-2212" transform="translate(0 0.78125)"/>
     <use xlink:href="#DejaVuSans-31" transform="translate(83.789062 0.78125)"/>
     <use xlink:href="#DejaVuSans-36" transform="translate(147.412109 0.78125)"/>
     <use xlink:href="#DejaVuSans-2e" transform="translate(211.035156 0.78125)"/>
     <use xlink:href="#DejaVuSans-33" transform="translate(242.822266 0.78125)"/>
     <use xlink:href="#DejaVuSans-Oblique-78" transform="translate(306.445312 0.78125)"/>
     <use xlink:href="#DejaVuSans-31" transform="translate(365.625 -15.625) scale(0.7)"/>
     <use xlink:href="#DejaVuSans-2212" transform="translate(432.37793 0.78125)"/>
     <use xlink:href="#DejaVuSans-38" transform="translate(535.649414 0.78125)"/>
     <use xlink:href="#DejaVuSans-2e" transform="translate(599.272461 0.78125)"/>
     <use xlink:href="#DejaVuSans-33" transform="translate(631.05957 0.78125)"/>
     <use xlink:href="#DejaVuSans-Oblique-78" transform="translate(694.682617 0.78125)"/>
     <use xlink:href="#DejaVuSans-32" transform="translate(753.862305 -15.625) scale(0.7)"/>
     <use xlink:href="#DejaVuSans-3d" transform="translate(820.615234 0.78125)"/>
     <use xlink:href="#DejaVuSans-31" transform="translate(923.886719 0.78125)"/>
     <use xlink:href="#DejaVuSans-36" transform="translate(987.509766 0.78125)"/>
     <use xlink:href="#DejaVuSans-39" transform="translate(1051.132812 0.78125)"/>
    </g>
   </g>
   <g id="text_19">
    <!-- (9.23, 5.99) -->
    <g style="fill: #000080" transform="translate(521.946281 190.168318) scale(0.1 -0.1)">
     <defs>
      <path id="ArialMT-28" d="M 1497 -1347 
Q 1031 -759 709 28 
Q 388 816 388 1659 
Q 388 2403 628 3084 
Q 909 3875 1497 4659 
L 1900 4659 
Q 1522 4009 1400 3731 
Q 1209 3300 1100 2831 
Q 966 2247 966 1656 
Q 966 153 1900 -1347 
L 1497 -1347 
z
" transform="scale(0.015625)"/>
      <path id="ArialMT-2e" d="M 581 0 
L 581 641 
L 1222 641 
L 1222 0 
L 581 0 
z
" transform="scale(0.015625)"/>
      <path id="ArialMT-33" d="M 269 1209 
L 831 1284 
Q 928 806 1161 595 
Q 1394 384 1728 384 
Q 2125 384 2398 659 
Q 2672 934 2672 1341 
Q 2672 1728 2419 1979 
Q 2166 2231 1775 2231 
Q 1616 2231 1378 2169 
L 1441 2663 
Q 1497 2656 1531 2656 
Q 1891 2656 2178 2843 
Q 2466 3031 2466 3422 
Q 2466 3731 2256 3934 
Q 2047 4138 1716 4138 
Q 1388 4138 1169 3931 
Q 950 3725 888 3313 
L 325 3413 
Q 428 3978 793 4289 
Q 1159 4600 1703 4600 
Q 2078 4600 2393 4439 
Q 2709 4278 2876 4000 
Q 3044 3722 3044 3409 
Q 3044 3113 2884 2869 
Q 2725 2625 2413 2481 
Q 2819 2388 3044 2092 
Q 3269 1797 3269 1353 
Q 3269 753 2831 336 
Q 2394 -81 1725 -81 
Q 1122 -81 723 278 
Q 325 638 269 1209 
z
" transform="scale(0.015625)"/>
      <path id="ArialMT-2c" d="M 569 0 
L 569 641 
L 1209 641 
L 1209 0 
Q 1209 -353 1084 -570 
Q 959 -788 688 -906 
L 531 -666 
Q 709 -588 793 -436 
Q 878 -284 888 0 
L 569 0 
z
" transform="scale(0.015625)"/>
      <path id="ArialMT-20" transform="scale(0.015625)"/>
      <path id="ArialMT-29" d="M 791 -1347 
L 388 -1347 
Q 1322 153 1322 1656 
Q 1322 2244 1188 2822 
Q 1081 3291 891 3722 
Q 769 4003 388 4659 
L 791 4659 
Q 1378 3875 1659 3084 
Q 1900 2403 1900 1659 
Q 1900 816 1576 28 
Q 1253 -759 791 -1347 
z
" transform="scale(0.015625)"/>
     </defs>
     <use xlink:href="#ArialMT-28"/>
     <use xlink:href="#ArialMT-39" x="33.300781"/>
     <use xlink:href="#ArialMT-2e" x="88.916016"/>
     <use xlink:href="#ArialMT-32" x="116.699219"/>
     <use xlink:href="#ArialMT-33" x="172.314453"/>
     <use xlink:href="#ArialMT-2c" x="227.929688"/>
     <use xlink:href="#ArialMT-20" x="255.712891"/>
     <use xlink:href="#ArialMT-35" x="283.496094"/>
     <use xlink:href="#ArialMT-2e" x="339.111328"/>
     <use xlink:href="#ArialMT-39" x="366.894531"/>
     <use xlink:href="#ArialMT-39" x="422.509766"/>
     <use xlink:href="#ArialMT-29" x="478.125"/>
    </g>
   </g>
   <g id="text_20">
    <!-- (5.18, 10.20) -->
    <g style="fill: #000080" transform="translate(176.391186 100.167814) scale(0.1 -0.1)">
     <use xlink:href="#ArialMT-28"/>
     <use xlink:href="#ArialMT-35" x="33.300781"/>
     <use xlink:href="#ArialMT-2e" x="88.916016"/>
     <use xlink:href="#ArialMT-31" x="116.699219"/>
     <use xlink:href="#ArialMT-38" x="172.314453"/>
     <use xlink:href="#ArialMT-2c" x="227.929688"/>
     <use xlink:href="#ArialMT-20" x="255.712891"/>
     <use xlink:href="#ArialMT-31" x="283.496094"/>
     <use xlink:href="#ArialMT-30" x="339.111328"/>
     <use xlink:href="#ArialMT-2e" x="394.726562"/>
     <use xlink:href="#ArialMT-32" x="422.509766"/>
     <use xlink:href="#ArialMT-30" x="478.125"/>
     <use xlink:href="#ArialMT-29" x="533.740234"/>
    </g>
   </g>
   <g id="text_21">
    <!-- (6.29, 8.01) -->
    <g style="fill: #000080" transform="translate(273.368883 146.962566) scale(0.1 -0.1)">
     <use xlink:href="#ArialMT-28"/>
     <use xlink:href="#ArialMT-36" x="33.300781"/>
     <use xlink:href="#ArialMT-2e" x="88.916016"/>
     <use xlink:href="#ArialMT-32" x="116.699219"/>
     <use xlink:href="#ArialMT-39" x="172.314453"/>
     <use xlink:href="#ArialMT-2c" x="227.929688"/>
     <use xlink:href="#ArialMT-20" x="255.712891"/>
     <use xlink:href="#ArialMT-38" x="283.496094"/>
     <use xlink:href="#ArialMT-2e" x="339.111328"/>
     <use xlink:href="#ArialMT-30" x="366.894531"/>
     <use xlink:href="#ArialMT-31" x="422.509766"/>
     <use xlink:href="#ArialMT-29" x="478.125"/>
    </g>
   </g>
   <g id="text_22">
    <!-- Intersection of three lines -->
    <g style="fill: #262626" transform="translate(285.209766 37.2) scale(0.15 -0.15)">
     <defs>
      <path id="ArialMT-49" d="M 597 0 
L 597 4581 
L 1203 4581 
L 1203 0 
L 597 0 
z
" transform="scale(0.015625)"/>
      <path id="ArialMT-6e" d="M 422 0 
L 422 3319 
L 928 3319 
L 928 2847 
Q 1294 3394 1984 3394 
Q 2284 3394 2536 3286 
Q 2788 3178 2913 3003 
Q 3038 2828 3088 2588 
Q 3119 2431 3119 2041 
L 3119 0 
L 2556 0 
L 2556 2019 
Q 2556 2363 2490 2533 
Q 2425 2703 2258 2804 
Q 2091 2906 1866 2906 
Q 1506 2906 1245 2678 
Q 984 2450 984 1813 
L 984 0 
L 422 0 
z
" transform="scale(0.015625)"/>
      <path id="ArialMT-74" d="M 1650 503 
L 1731 6 
Q 1494 -44 1306 -44 
Q 1000 -44 831 53 
Q 663 150 594 308 
Q 525 466 525 972 
L 525 2881 
L 113 2881 
L 113 3319 
L 525 3319 
L 525 4141 
L 1084 4478 
L 1084 3319 
L 1650 3319 
L 1650 2881 
L 1084 2881 
L 1084 941 
Q 1084 700 1114 631 
Q 1144 563 1211 522 
Q 1278 481 1403 481 
Q 1497 481 1650 503 
z
" transform="scale(0.015625)"/>
      <path id="ArialMT-65" d="M 2694 1069 
L 3275 997 
Q 3138 488 2766 206 
Q 2394 -75 1816 -75 
Q 1088 -75 661 373 
Q 234 822 234 1631 
Q 234 2469 665 2931 
Q 1097 3394 1784 3394 
Q 2450 3394 2872 2941 
Q 3294 2488 3294 1666 
Q 3294 1616 3291 1516 
L 816 1516 
Q 847 969 1125 678 
Q 1403 388 1819 388 
Q 2128 388 2347 550 
Q 2566 713 2694 1069 
z
M 847 1978 
L 2700 1978 
Q 2663 2397 2488 2606 
Q 2219 2931 1791 2931 
Q 1403 2931 1139 2672 
Q 875 2413 847 1978 
z
" transform="scale(0.015625)"/>
      <path id="ArialMT-72" d="M 416 0 
L 416 3319 
L 922 3319 
L 922 2816 
Q 1116 3169 1280 3281 
Q 1444 3394 1641 3394 
Q 1925 3394 2219 3213 
L 2025 2691 
Q 1819 2813 1613 2813 
Q 1428 2813 1281 2702 
Q 1134 2591 1072 2394 
Q 978 2094 978 1738 
L 978 0 
L 416 0 
z
" transform="scale(0.015625)"/>
      <path id="ArialMT-73" d="M 197 991 
L 753 1078 
Q 800 744 1014 566 
Q 1228 388 1613 388 
Q 2000 388 2187 545 
Q 2375 703 2375 916 
Q 2375 1106 2209 1216 
Q 2094 1291 1634 1406 
Q 1016 1563 777 1677 
Q 538 1791 414 1992 
Q 291 2194 291 2438 
Q 291 2659 392 2848 
Q 494 3038 669 3163 
Q 800 3259 1026 3326 
Q 1253 3394 1513 3394 
Q 1903 3394 2198 3281 
Q 2494 3169 2634 2976 
Q 2775 2784 2828 2463 
L 2278 2388 
Q 2241 2644 2061 2787 
Q 1881 2931 1553 2931 
Q 1166 2931 1000 2803 
Q 834 2675 834 2503 
Q 834 2394 903 2306 
Q 972 2216 1119 2156 
Q 1203 2125 1616 2013 
Q 2213 1853 2448 1751 
Q 2684 1650 2818 1456 
Q 2953 1263 2953 975 
Q 2953 694 2789 445 
Q 2625 197 2315 61 
Q 2006 -75 1616 -75 
Q 969 -75 630 194 
Q 291 463 197 991 
z
" transform="scale(0.015625)"/>
      <path id="ArialMT-63" d="M 2588 1216 
L 3141 1144 
Q 3050 572 2676 248 
Q 2303 -75 1759 -75 
Q 1078 -75 664 370 
Q 250 816 250 1647 
Q 250 2184 428 2587 
Q 606 2991 970 3192 
Q 1334 3394 1763 3394 
Q 2303 3394 2647 3120 
Q 2991 2847 3088 2344 
L 2541 2259 
Q 2463 2594 2264 2762 
Q 2066 2931 1784 2931 
Q 1359 2931 1093 2626 
Q 828 2322 828 1663 
Q 828 994 1084 691 
Q 1341 388 1753 388 
Q 2084 388 2306 591 
Q 2528 794 2588 1216 
z
" transform="scale(0.015625)"/>
      <path id="ArialMT-69" d="M 425 3934 
L 425 4581 
L 988 4581 
L 988 3934 
L 425 3934 
z
M 425 0 
L 425 3319 
L 988 3319 
L 988 0 
L 425 0 
z
" transform="scale(0.015625)"/>
      <path id="ArialMT-6f" d="M 213 1659 
Q 213 2581 725 3025 
Q 1153 3394 1769 3394 
Q 2453 3394 2887 2945 
Q 3322 2497 3322 1706 
Q 3322 1066 3130 698 
Q 2938 331 2570 128 
Q 2203 -75 1769 -75 
Q 1072 -75 642 372 
Q 213 819 213 1659 
z
M 791 1659 
Q 791 1022 1069 705 
Q 1347 388 1769 388 
Q 2188 388 2466 706 
Q 2744 1025 2744 1678 
Q 2744 2294 2464 2611 
Q 2184 2928 1769 2928 
Q 1347 2928 1069 2612 
Q 791 2297 791 1659 
z
" transform="scale(0.015625)"/>
      <path id="ArialMT-66" d="M 556 0 
L 556 2881 
L 59 2881 
L 59 3319 
L 556 3319 
L 556 3672 
Q 556 4006 616 4169 
Q 697 4388 901 4523 
Q 1106 4659 1475 4659 
Q 1713 4659 2000 4603 
L 1916 4113 
Q 1741 4144 1584 4144 
Q 1328 4144 1222 4034 
Q 1116 3925 1116 3625 
L 1116 3319 
L 1763 3319 
L 1763 2881 
L 1116 2881 
L 1116 0 
L 556 0 
z
" transform="scale(0.015625)"/>
      <path id="ArialMT-68" d="M 422 0 
L 422 4581 
L 984 4581 
L 984 2938 
Q 1378 3394 1978 3394 
Q 2347 3394 2619 3248 
Q 2891 3103 3008 2847 
Q 3125 2591 3125 2103 
L 3125 0 
L 2563 0 
L 2563 2103 
Q 2563 2525 2380 2717 
Q 2197 2909 1863 2909 
Q 1613 2909 1392 2779 
Q 1172 2650 1078 2428 
Q 984 2206 984 1816 
L 984 0 
L 422 0 
z
" transform="scale(0.015625)"/>
      <path id="ArialMT-6c" d="M 409 0 
L 409 4581 
L 972 4581 
L 972 0 
L 409 0 
z
" transform="scale(0.015625)"/>
     </defs>
     <use xlink:href="#ArialMT-49"/>
     <use xlink:href="#ArialMT-6e" x="27.783203"/>
     <use xlink:href="#ArialMT-74" x="83.398438"/>
     <use xlink:href="#ArialMT-65" x="111.181641"/>
     <use xlink:href="#ArialMT-72" x="166.796875"/>
     <use xlink:href="#ArialMT-73" x="200.097656"/>
     <use xlink:href="#ArialMT-65" x="250.097656"/>
     <use xlink:href="#ArialMT-63" x="305.712891"/>
     <use xlink:href="#ArialMT-74" x="355.712891"/>
     <use xlink:href="#ArialMT-69" x="383.496094"/>
     <use xlink:href="#ArialMT-6f" x="405.712891"/>
     <use xlink:href="#ArialMT-6e" x="461.328125"/>
     <use xlink:href="#ArialMT-20" x="516.943359"/>
     <use xlink:href="#ArialMT-6f" x="544.726562"/>
     <use xlink:href="#ArialMT-66" x="600.341797"/>
     <use xlink:href="#ArialMT-20" x="628.125"/>
     <use xlink:href="#ArialMT-74" x="655.908203"/>
     <use xlink:href="#ArialMT-68" x="683.691406"/>
     <use xlink:href="#ArialMT-72" x="739.306641"/>
     <use xlink:href="#ArialMT-65" x="772.607422"/>
     <use xlink:href="#ArialMT-65" x="828.222656"/>
     <use xlink:href="#ArialMT-20" x="883.837891"/>
     <use xlink:href="#ArialMT-6c" x="911.621094"/>
     <use xlink:href="#ArialMT-69" x="933.837891"/>
     <use xlink:href="#ArialMT-6e" x="956.054688"/>
     <use xlink:href="#ArialMT-65" x="1011.669922"/>
     <use xlink:href="#ArialMT-73" x="1067.285156"/>
    </g>
   </g>
   <g id="PathCollection_1">
    <defs>
     <path id="m478b9d84cb" d="M 0 3 
C 0.795609 3 1.55874 2.683901 2.12132 2.12132 
C 2.683901 1.55874 3 0.795609 3 0 
C 3 -0.795609 2.683901 -1.55874 2.12132 -2.12132 
C 1.55874 -2.683901 0.795609 -3 0 -3 
C -0.795609 -3 -1.55874 -2.683901 -2.12132 -2.12132 
C -2.683901 -1.55874 -3 -0.795609 -3 0 
C -3 0.795609 -2.683901 1.55874 -2.12132 2.12132 
C -1.55874 2.683901 -0.795609 3 0 3 
z
" style="stroke: #000080"/>
    </defs>
    <g clip-path="url(#p55961f0459)">
     <use xlink:href="#m478b9d84cb" x="557.515031" y="195.168318" style="fill: #000080; stroke: #000080"/>
    </g>
   </g>
   <g id="PathCollection_2">
    <g clip-path="url(#p55961f0459)">
     <use xlink:href="#m478b9d84cb" x="214.740405" y="105.167814" style="fill: #000080; stroke: #000080"/>
    </g>
   </g>
   <g id="PathCollection_3">
    <g clip-path="url(#p55961f0459)">
     <use xlink:href="#m478b9d84cb" x="308.937633" y="151.962566" style="fill: #000080; stroke: #000080"/>
    </g>
   </g>
   <g id="legend_1">
    <g id="line2d_30">
     <path d="M 512.217188 55.857812 
L 522.217188 55.857812 
L 532.217188 55.857812 
" style="fill: none; stroke-dasharray: 5.55,2.4; stroke-dashoffset: 0; stroke: #cd5c5c; stroke-width: 1.5"/>
    </g>
    <g id="text_23">
     <!-- 8.2x1 + 7.9x2 = 123 -->
     <g style="fill: #262626" transform="translate(540.217188 59.357812) scale(0.1 -0.1)">
      <defs>
       <path id="ArialMT-78" d="M 47 0 
L 1259 1725 
L 138 3319 
L 841 3319 
L 1350 2541 
Q 1494 2319 1581 2169 
Q 1719 2375 1834 2534 
L 2394 3319 
L 3066 3319 
L 1919 1756 
L 3153 0 
L 2463 0 
L 1781 1031 
L 1600 1309 
L 728 0 
L 47 0 
z
" transform="scale(0.015625)"/>
       <path id="ArialMT-2b" d="M 1603 741 
L 1603 1997 
L 356 1997 
L 356 2522 
L 1603 2522 
L 1603 3769 
L 2134 3769 
L 2134 2522 
L 3381 2522 
L 3381 1997 
L 2134 1997 
L 2134 741 
L 1603 741 
z
" transform="scale(0.015625)"/>
       <path id="ArialMT-3d" d="M 3381 2694 
L 356 2694 
L 356 3219 
L 3381 3219 
L 3381 2694 
z
M 3381 1303 
L 356 1303 
L 356 1828 
L 3381 1828 
L 3381 1303 
z
" transform="scale(0.015625)"/>
      </defs>
      <use xlink:href="#ArialMT-38"/>
      <use xlink:href="#ArialMT-2e" x="55.615234"/>
      <use xlink:href="#ArialMT-32" x="83.398438"/>
      <use xlink:href="#ArialMT-78" x="139.013672"/>
      <use xlink:href="#ArialMT-31" x="189.013672"/>
      <use xlink:href="#ArialMT-20" x="244.628906"/>
      <use xlink:href="#ArialMT-2b" x="272.412109"/>
      <use xlink:href="#ArialMT-20" x="330.810547"/>
      <use xlink:href="#ArialMT-37" x="358.59375"/>
      <use xlink:href="#ArialMT-2e" x="414.208984"/>
      <use xlink:href="#ArialMT-39" x="441.992188"/>
      <use xlink:href="#ArialMT-78" x="497.607422"/>
      <use xlink:href="#ArialMT-32" x="547.607422"/>
      <use xlink:href="#ArialMT-20" x="603.222656"/>
      <use xlink:href="#ArialMT-3d" x="631.005859"/>
      <use xlink:href="#ArialMT-20" x="689.404297"/>
      <use xlink:href="#ArialMT-31" x="717.1875"/>
      <use xlink:href="#ArialMT-32" x="772.802734"/>
      <use xlink:href="#ArialMT-33" x="828.417969"/>
     </g>
    </g>
    <g id="line2d_31">
     <path d="M 512.217188 70.003125 
L 522.217188 70.003125 
L 532.217188 70.003125 
" style="fill: none; stroke-dasharray: 1.5,2.475; stroke-dashoffset: 0; stroke: #008080; stroke-width: 1.5"/>
    </g>
    <g id="text_24">
     <!-- 11.2x1 + 16.3x2 = 201 -->
     <g style="fill: #262626" transform="translate(540.217188 73.503125) scale(0.1 -0.1)">
      <use xlink:href="#ArialMT-31"/>
      <use xlink:href="#ArialMT-31" x="48.240234"/>
      <use xlink:href="#ArialMT-2e" x="103.855469"/>
      <use xlink:href="#ArialMT-32" x="131.638672"/>
      <use xlink:href="#ArialMT-78" x="187.253906"/>
      <use xlink:href="#ArialMT-31" x="237.253906"/>
      <use xlink:href="#ArialMT-20" x="292.869141"/>
      <use xlink:href="#ArialMT-2b" x="320.652344"/>
      <use xlink:href="#ArialMT-20" x="379.050781"/>
      <use xlink:href="#ArialMT-31" x="406.833984"/>
      <use xlink:href="#ArialMT-36" x="462.449219"/>
      <use xlink:href="#ArialMT-2e" x="518.064453"/>
      <use xlink:href="#ArialMT-33" x="545.847656"/>
      <use xlink:href="#ArialMT-78" x="601.462891"/>
      <use xlink:href="#ArialMT-32" x="651.462891"/>
      <use xlink:href="#ArialMT-20" x="707.078125"/>
      <use xlink:href="#ArialMT-3d" x="734.861328"/>
      <use xlink:href="#ArialMT-20" x="793.259766"/>
      <use xlink:href="#ArialMT-32" x="821.042969"/>
      <use xlink:href="#ArialMT-30" x="876.658203"/>
      <use xlink:href="#ArialMT-31" x="932.273438"/>
     </g>
    </g>
    <g id="line2d_32">
     <path d="M 512.217188 84.148437 
L 522.217188 84.148437 
L 532.217188 84.148437 
" style="fill: none; stroke-dasharray: 9.6,2.4,1.5,2.4; stroke-dashoffset: 0; stroke: #ff00ff; stroke-width: 1.5"/>
    </g>
    <g id="text_25">
     <!-- -16.3x1 - 8.3x2 = 169 -->
     <g style="fill: #262626" transform="translate(540.217188 87.648437) scale(0.1 -0.1)">
      <defs>
       <path id="ArialMT-2d" d="M 203 1375 
L 203 1941 
L 1931 1941 
L 1931 1375 
L 203 1375 
z
" transform="scale(0.015625)"/>
      </defs>
      <use xlink:href="#ArialMT-2d"/>
      <use xlink:href="#ArialMT-31" x="33.300781"/>
      <use xlink:href="#ArialMT-36" x="88.916016"/>
      <use xlink:href="#ArialMT-2e" x="144.53125"/>
      <use xlink:href="#ArialMT-33" x="172.314453"/>
      <use xlink:href="#ArialMT-78" x="227.929688"/>
      <use xlink:href="#ArialMT-31" x="277.929688"/>
      <use xlink:href="#ArialMT-20" x="333.544922"/>
      <use xlink:href="#ArialMT-2d" x="361.328125"/>
      <use xlink:href="#ArialMT-20" x="394.628906"/>
      <use xlink:href="#ArialMT-38" x="422.412109"/>
      <use xlink:href="#ArialMT-2e" x="478.027344"/>
      <use xlink:href="#ArialMT-33" x="505.810547"/>
      <use xlink:href="#ArialMT-78" x="561.425781"/>
      <use xlink:href="#ArialMT-32" x="611.425781"/>
      <use xlink:href="#ArialMT-20" x="667.041016"/>
      <use xlink:href="#ArialMT-3d" x="694.824219"/>
      <use xlink:href="#ArialMT-20" x="753.222656"/>
      <use xlink:href="#ArialMT-31" x="781.005859"/>
      <use xlink:href="#ArialMT-36" x="836.621094"/>
      <use xlink:href="#ArialMT-39" x="892.236328"/>
     </g>
    </g>
   </g>
  </g>
 </g>
 <defs>
  <clipPath id="p55961f0459">
   <rect x="90" y="43.2" width="558" height="277.2"/>
  </clipPath>
 </defs>
</svg>
